<svg version="1.1" 
	xmlns="http://www.w3.org/2000/svg" 
	xmlns:xlink="http://www.w3.org/1999/xlink" 
	viewBox="0 0 224 224">
	<g fill="none" 
		fill-rule="nonzero" 
		stroke="none" 
		stroke-width="1" 
		stroke-linecap="butt" 
		stroke-linejoin="miter" 
		stroke-miterlimit="10" 
		stroke-dasharray="" 
		stroke-dashoffset="0" 
		font-family="none" 
		font-weight="none" 
		font-size="none" 
		text-anchor="none" 
		style="mix-blend-mode: normal">
		<path d="M0,224v-224h224v224z" 
			fill="none"></path>
		<g>
			<g id="surface1">
				<path d="M86.21458,65.05712c0,-7.36726 -22.10179,-22.10179 -36.83632,-11.0509c-10.63361,7.97161 0,40.51995 0,40.51995z" 
					fill="#795548"></path>
				<path d="M137.78542,65.05712c0,-7.36726 22.10179,-22.10179 36.83632,-11.0509c10.63361,7.97161 0,40.51995 0,40.51995z" 
					fill="#795548"></path>
				<path d="M181.989,116.62796c0,11.0509 -22.10179,66.30537 -69.989,66.30537c-47.88721,0 -69.989,-55.25448 -69.989,-66.30537c7.36726,-44.20358 44.20358,-69.989 69.989,-51.57084c25.78542,-18.41816 62.62174,7.36726 69.989,51.57084z" 
					fill="#795548"></path>
				<path d="M174.89513,93.64843c1.25186,-4.1297 6.43197,-22.30324 3.59729,-33.15269c-9.20908,-3.12245 -19.68441,0.96408 -25.88614,5.9859c8.80618,5.9859 16.70584,15.32448 22.28885,27.16678z" 
					fill="#4e342e"></path>
				<path d="M71.39372,66.48165c-6.20174,-5.02183 -16.67707,-9.10835 -25.88615,-5.9859c-2.83467,10.84944 2.34544,29.02299 3.59729,33.15269c5.583,-11.8423 13.48267,-21.18088 22.28885,-27.16678z" 
					fill="#4e342e"></path>
				<path d="M91.74003,98.2098c-7.10826,0 -12.89271,5.78445 -12.89271,12.89271c0,7.10826 5.78445,12.89271 12.89271,12.89271c7.10826,0 12.89271,-5.78445 12.89271,-12.89271c0,-7.10826 -5.78445,-12.89271 -12.89271,-12.89271z" 
					fill="#bcaaa4"></path>
				<path d="M132.25997,98.2098c-7.10826,0 -12.89271,5.78445 -12.89271,12.89271c0,7.10826 5.78445,12.89271 12.89271,12.89271c7.10826,0 12.89271,-5.78445 12.89271,-12.89271c0,-7.10826 -5.78445,-12.89271 -12.89271,-12.89271z" 
					fill="#bcaaa4"></path>
				<path d="M134.10179,98.2098h-44.20358c3.68363,0 7.36726,5.324 7.36726,7.36726l-7.36726,44.20358c0,7.36726 3.68363,11.0509 7.36726,11.0509h11.0509v-7.36726h7.36726v7.36726h11.0509c3.68363,0 7.36726,-3.68363 7.36726,-11.0509l-7.36726,-44.20358c0,-2.04326 3.68363,-7.36726 7.36726,-7.36726z" 
					fill="#bcaaa4"></path>
				<path d="M126.73453,160.83154h-29.46905c-0.76263,0 -1.51086,-0.20145 -2.23032,-0.50362c2.7915,4.61893 9.33858,7.87089 16.96485,7.87089c7.62627,0 14.17335,-3.25195 16.96485,-7.87089c-0.71946,0.30218 -1.4677,0.50362 -2.23032,0.50362z" 
					fill="#3e2723"></path>
				<path d="M123.0509,149.78065c0,2.04327 -5.324,7.36726 -7.36726,7.36726h-7.36726c-2.02887,0 -7.36726,-5.324 -7.36726,-7.36726v-7.36726c0,-2.04326 1.65476,-3.68363 3.68363,-3.68363h14.73453c2.04327,0 3.68363,1.64037 3.68363,3.68363z" 
					fill="#3e2723"></path>
				<path d="M61.59468,74.95688c3.0649,-3.29512 6.34563,-6.12979 9.78465,-8.46084c-3.13684,-2.54689 -7.33848,-4.83477 -11.95741,-6.08663c-1.65476,1.66915 -2.67639,3.95703 -2.67639,6.48952c0,3.49657 1.97132,6.50391 4.84915,8.05794z" 
					fill="#212121"></path>
				<path d="M162.40532,74.95688c2.87784,-1.55403 4.84915,-4.56137 4.84915,-8.05794c0,-2.5325 -1.02163,-4.82038 -2.67639,-6.48952c-4.61893,1.25186 -8.82057,3.53974 -11.95741,6.07224c3.43902,2.33105 6.71975,5.18011 9.78465,8.47523z" 
					fill="#212121"></path>
				<path d="M97.26547,111.10251c0,3.05051 -2.47494,5.52545 -5.52545,5.52545c-3.05051,0 -5.52545,-2.47494 -5.52545,-5.52545c0,-3.05051 2.47494,-5.52545 5.52545,-5.52545c3.05051,0 5.52545,2.47494 5.52545,5.52545z" 
					fill="#212121"></path>
				<path d="M137.78542,111.10251c0,3.05051 -2.47494,5.52545 -5.52545,5.52545c-3.05051,0 -5.52545,-2.47494 -5.52545,-5.52545c0,-3.05051 2.47494,-5.52545 5.52545,-5.52545c3.05051,0 5.52545,2.47494 5.52545,5.52545z" 
					fill="#212121"></path>
			</g>
		</g>
		<path d="M112,224c-61.85589,0 -112,-50.14411 -112,-112v0c0,-61.85589 50.14411,-112 112,-112v0c61.85589,0 112,50.14411 112,112v0c0,61.85589 -50.14411,112 -112,112z" 
			fill="none"></path>
		<path d="M112,219.52c-59.38166,0 -107.52,-48.13834 -107.52,-107.52v0c0,-59.38166 48.13834,-107.52 107.52,-107.52h0c59.38166,0 107.52,48.13834 107.52,107.52v0c0,59.38166 -48.13834,107.52 -107.52,107.52z" 
			fill="none"></path>
		<path d="M0,224v-224h224v224z" 
			fill="none"></path>
		<path d="M4.48,219.52v-215.04h215.04v215.04z" 
			fill="none"></path>
	</g>
</svg>